# xmcd
#
# Track frame offsets: 
#        150
#        19973
#        36483
#        55068
#        69330
#        86881
#
# Disc length: 1641 seconds
#
# Revision: 0
# Processed by: cddbd v1.5.1PL0 Copyright (c) Steve Scherf et al.
# Submitted via: ExactAudioCopy v0.90b4
#
DISCID=4e066706
DTITLE=Robbie Laws HooDoo Nation (Demo) - Uptown Tribal Blues Music
DYEAR=2003
DGENRE=Blues
TTITLE0=A Good Fool Is Hard To Find
TTITLE1=The Hucklebuck
TTITLE2=Bad Case Of The Blues
TTITLE3=Why Not
TTITLE4=I'm Tore Down
TTITLE5=Sweet Little Angel
EXTD=
EXTT0=
EXTT1=
EXTT2=
EXTT3=
EXTT4=
EXTT5=
PLAYORDER=
